<svg xmlns="http://www.w3.org/2000/svg" xmlns:xlink="http://www.w3.org/1999/xlink" width="400" zoomAndPan="magnify" viewBox="0 0 300 74.999997" height="100" preserveAspectRatio="xMidYMid meet" version="1.0"><defs><g/><clipPath id="4c19338c22"><path d="M 268.128906 12.957031 L 278.082031 12.957031 L 278.082031 54.863281 L 268.128906 54.863281 Z M 268.128906 12.957031 " clip-rule="nonzero"/></clipPath><clipPath id="084896a172"><path d="M 252.382812 28.9375 L 293.820312 28.9375 L 293.820312 38.894531 L 252.382812 38.894531 Z M 252.382812 28.9375 " clip-rule="nonzero"/></clipPath></defs><g fill="#171716" fill-opacity="1"><g transform="translate(10.695068, 48.346509)"><g><path d="M 2.28125 0 L 2.28125 -32.46875 L 24.03125 -32.46875 C 30.300781 -32.46875 35.109375 -31.066406 38.453125 -28.265625 C 41.796875 -25.472656 43.46875 -21.460938 43.46875 -16.234375 C 43.46875 -11.003906 41.796875 -6.988281 38.453125 -4.1875 C 35.109375 -1.394531 30.300781 0 24.03125 0 Z M 11.21875 -6.4375 L 22.890625 -6.4375 C 26.628906 -6.4375 29.503906 -7.285156 31.515625 -8.984375 C 33.523438 -10.691406 34.53125 -13.109375 34.53125 -16.234375 C 34.53125 -19.398438 33.523438 -21.828125 31.515625 -23.515625 C 29.503906 -25.203125 26.628906 -26.046875 22.890625 -26.046875 L 11.21875 -26.046875 Z M 11.21875 -6.4375 "/></g></g></g><g fill="#171716" fill-opacity="1"><g transform="translate(55.386715, 48.346509)"><g><path d="M 2.28125 0 L 2.28125 -32.46875 L 11.453125 -32.46875 L 11.453125 -6.890625 L 31.796875 -6.890625 L 31.796875 0 Z M 2.28125 0 "/></g></g></g><g fill="#171716" fill-opacity="1"><g transform="translate(87.354912, 48.346509)"><g><path d="M 6.25 -26.546875 C 4.851562 -26.546875 3.703125 -26.945312 2.796875 -27.75 C 1.898438 -28.5625 1.453125 -29.601562 1.453125 -30.875 C 1.453125 -32.15625 1.898438 -33.195312 2.796875 -34 C 3.703125 -34.800781 4.851562 -35.203125 6.25 -35.203125 C 7.675781 -35.203125 8.835938 -34.800781 9.734375 -34 C 10.628906 -33.195312 11.078125 -32.15625 11.078125 -30.875 C 11.078125 -29.601562 10.628906 -28.5625 9.734375 -27.75 C 8.835938 -26.945312 7.675781 -26.546875 6.25 -26.546875 Z M 2.09375 0 L 2.09375 -23.359375 L 10.4375 -23.359375 L 10.4375 0 Z M 2.09375 0 "/></g></g></g><g fill="#171716" fill-opacity="1"><g transform="translate(99.531063, 48.346509)"><g><path d="M 13.140625 0 L 0 -23.359375 L 8.9375 -23.359375 L 18.421875 -5.375 L 18.46875 -5.375 L 27.953125 -23.359375 L 36.890625 -23.359375 L 23.671875 0 Z M 13.140625 0 "/></g></g></g><g fill="#171716" fill-opacity="1"><g transform="translate(136.059637, 48.346509)"><g><path d="M 19.703125 -24.171875 C 22.285156 -24.171875 24.394531 -23.316406 26.03125 -21.609375 C 27.675781 -19.910156 28.609375 -17.570312 28.828125 -14.59375 L 21.25 -13 C 21.132812 -14.820312 20.632812 -16.25 19.75 -17.28125 C 18.863281 -18.320312 17.753906 -18.84375 16.421875 -18.84375 C 14.472656 -18.84375 12.941406 -18.070312 11.828125 -16.53125 C 10.722656 -15 10.171875 -12.925781 10.171875 -10.3125 L 10.171875 0 L 1.828125 0 L 1.828125 -23.359375 L 8.84375 -23.359375 L 9.9375 -18.0625 L 9.984375 -18.0625 C 10.867188 -19.945312 12.175781 -21.4375 13.90625 -22.53125 C 15.644531 -23.625 17.578125 -24.171875 19.703125 -24.171875 Z M 19.703125 -24.171875 "/></g></g></g><g fill="#171716" fill-opacity="1"><g transform="translate(165.109187, 48.346509)"><g><path d="M 20.53125 0.828125 C 16.726562 0.828125 13.363281 0.300781 10.4375 -0.75 C 7.519531 -1.800781 5.238281 -3.273438 3.59375 -5.171875 C 1.957031 -7.078125 1.140625 -9.273438 1.140625 -11.765625 C 1.140625 -14.203125 1.890625 -16.347656 3.390625 -18.203125 C 4.898438 -20.054688 6.992188 -21.515625 9.671875 -22.578125 C 12.347656 -23.640625 15.414062 -24.171875 18.875 -24.171875 C 22.28125 -24.171875 25.269531 -23.644531 27.84375 -22.59375 C 30.414062 -21.550781 32.421875 -20.101562 33.859375 -18.25 C 35.304688 -16.394531 36.03125 -14.21875 36.03125 -11.71875 C 36.03125 -11.445312 36.015625 -11.101562 35.984375 -10.6875 C 35.953125 -10.28125 35.890625 -9.910156 35.796875 -9.578125 L 10.03125 -9.578125 C 10.363281 -8.453125 11.070312 -7.5 12.15625 -6.71875 C 13.238281 -5.945312 14.5625 -5.363281 16.125 -4.96875 C 17.6875 -4.570312 19.363281 -4.375 21.15625 -4.375 C 22.863281 -4.375 24.515625 -4.507812 26.109375 -4.78125 C 27.703125 -5.0625 29.160156 -5.441406 30.484375 -5.921875 C 31.804688 -6.410156 32.878906 -6.960938 33.703125 -7.578125 L 36.34375 -3.375 C 35.28125 -2.550781 33.921875 -1.820312 32.265625 -1.1875 C 30.609375 -0.550781 28.773438 -0.0546875 26.765625 0.296875 C 24.765625 0.648438 22.6875 0.828125 20.53125 0.828125 Z M 9.859375 -13.640625 L 27.59375 -13.640625 C 27.5 -14.765625 27.050781 -15.742188 26.25 -16.578125 C 25.445312 -17.410156 24.394531 -18.054688 23.09375 -18.515625 C 21.800781 -18.972656 20.351562 -19.203125 18.75 -19.203125 C 17.164062 -19.203125 15.726562 -18.960938 14.4375 -18.484375 C 13.144531 -18.015625 12.09375 -17.363281 11.28125 -16.53125 C 10.476562 -15.695312 10.003906 -14.734375 9.859375 -13.640625 Z M 9.859375 -13.640625 "/></g></g></g><g fill="#171716" fill-opacity="1"><g transform="translate(202.732258, 48.346509)"><g><path d="M 18.75 0.828125 C 15.1875 0.828125 12.410156 0.03125 10.421875 -1.5625 C 8.429688 -3.164062 7.421875 -5.378906 7.390625 -8.203125 L 7.390625 -18.0625 L 0.234375 -18.0625 L 0.234375 -23.359375 L 7.34375 -23.359375 L 7.34375 -30.015625 L 15.734375 -31.515625 L 15.734375 -23.359375 L 30.328125 -23.359375 L 30.328125 -18.0625 L 15.734375 -18.0625 L 15.734375 -9.890625 C 15.703125 -8.316406 16.113281 -7.109375 16.96875 -6.265625 C 17.820312 -5.429688 19.128906 -5.015625 20.890625 -5.015625 C 22.503906 -5.015625 23.945312 -5.363281 25.21875 -6.0625 C 26.5 -6.757812 27.65625 -7.75 28.6875 -9.03125 L 31.15625 -4.46875 C 29.664062 -2.738281 27.898438 -1.421875 25.859375 -0.515625 C 23.828125 0.378906 21.457031 0.828125 18.75 0.828125 Z M 18.75 0.828125 "/></g></g></g><g clip-path="url(#4c19338c22)"><path fill="#171716" d="M 268.128906 54.863281 L 268.128906 12.941406 L 278.082031 12.941406 L 278.082031 54.863281 Z M 268.128906 54.863281 " fill-opacity="1" fill-rule="nonzero"/></g><g clip-path="url(#084896a172)"><path fill="#171716" d="M 252.382812 28.9375 L 293.804688 28.9375 L 293.804688 38.894531 L 252.382812 38.894531 Z M 252.382812 28.9375 " fill-opacity="1" fill-rule="nonzero"/></g></svg>