<svg xmlns="http://www.w3.org/2000/svg" xmlns:xlink="http://www.w3.org/1999/xlink" width="250" zoomAndPan="magnify" viewBox="0 0 187.5 74.999997" height="100" preserveAspectRatio="xMidYMid meet" version="1.0"><defs><g/></defs><g fill="#ffffff" fill-opacity="1"><g transform="translate(23.299144, 49.705754)"><g><path d="M 8.5625 -23.109375 L 14.1875 -10.546875 L 19.828125 -23.109375 L 29.28125 -23.109375 L 16.890625 0 L 11.484375 0 L -0.90625 -23.109375 Z M 8.5625 -23.109375 "/></g></g></g><g fill="#ffffff" fill-opacity="1"><g transform="translate(47.439181, 49.705754)"><g><path d="M 4.875 -2.75 C 2.3125 -5.03125 1.03125 -7.957031 1.03125 -11.53125 C 1.03125 -15.101562 2.363281 -18.035156 5.03125 -20.328125 C 7.707031 -22.628906 11.015625 -23.78125 14.953125 -23.78125 C 18.828125 -23.78125 22.09375 -22.625 24.75 -20.3125 C 27.40625 -18 28.734375 -15.070312 28.734375 -11.53125 C 28.734375 -7.988281 27.4375 -5.066406 24.84375 -2.765625 C 22.25 -0.472656 18.953125 0.671875 14.953125 0.671875 C 10.804688 0.671875 7.445312 -0.46875 4.875 -2.75 Z M 11.046875 -15.453125 C 10.015625 -14.429688 9.5 -13.125 9.5 -11.53125 C 9.5 -9.9375 9.992188 -8.632812 10.984375 -7.625 C 11.984375 -6.625 13.289062 -6.125 14.90625 -6.125 C 16.46875 -6.125 17.75 -6.632812 18.75 -7.65625 C 19.757812 -8.675781 20.265625 -9.96875 20.265625 -11.53125 C 20.265625 -13.125 19.742188 -14.429688 18.703125 -15.453125 C 17.671875 -16.472656 16.40625 -16.984375 14.90625 -16.984375 C 13.375 -16.984375 12.085938 -16.472656 11.046875 -15.453125 Z M 11.046875 -15.453125 "/></g></g></g><g fill="#ffffff" fill-opacity="1"><g transform="translate(72.975452, 49.705754)"><g><path d="M 4.046875 -23.109375 L 4.046875 -31.71875 L 12.03125 -31.71875 L 12.03125 -23.109375 L 16.890625 -23.109375 L 16.890625 -17.03125 L 12.03125 -17.03125 L 12.03125 -9.6875 C 12.03125 -7.550781 12.628906 -6.484375 13.828125 -6.484375 C 14.128906 -6.484375 14.441406 -6.539062 14.765625 -6.65625 C 15.097656 -6.78125 15.359375 -6.90625 15.546875 -7.03125 L 15.8125 -7.203125 L 17.796875 -0.765625 C 16.078125 0.191406 14.125 0.671875 11.9375 0.671875 C 10.4375 0.671875 9.144531 0.410156 8.0625 -0.109375 C 6.976562 -0.640625 6.160156 -1.347656 5.609375 -2.234375 C 5.054688 -3.117188 4.65625 -4.046875 4.40625 -5.015625 C 4.164062 -5.992188 4.046875 -7.039062 4.046875 -8.15625 L 4.046875 -17.03125 L 0.71875 -17.03125 L 0.71875 -23.109375 Z M 4.046875 -23.109375 "/></g></g></g><g fill="#ffffff" fill-opacity="1"><g transform="translate(86.53116, 49.705754)"><g><path d="M 3.46875 -35.984375 C 4.394531 -36.921875 5.503906 -37.390625 6.796875 -37.390625 C 8.085938 -37.390625 9.195312 -36.921875 10.125 -35.984375 C 11.0625 -35.054688 11.53125 -33.945312 11.53125 -32.65625 C 11.53125 -31.363281 11.0625 -30.25 10.125 -29.3125 C 9.195312 -28.382812 8.085938 -27.921875 6.796875 -27.921875 C 5.503906 -27.921875 4.394531 -28.382812 3.46875 -29.3125 C 2.539062 -30.25 2.078125 -31.363281 2.078125 -32.65625 C 2.078125 -33.945312 2.539062 -35.054688 3.46875 -35.984375 Z M 2.703125 -23.109375 L 2.703125 0 L 10.671875 0 L 10.671875 -23.109375 Z M 2.703125 -23.109375 "/></g></g></g><g fill="#ffffff" fill-opacity="1"><g transform="translate(95.898186, 49.705754)"><g><path d="M 2.703125 0 L 2.703125 -23.109375 L 10.671875 -23.109375 L 10.671875 -20.671875 L 10.765625 -20.671875 C 12.835938 -22.742188 15.046875 -23.78125 17.390625 -23.78125 C 18.523438 -23.78125 19.65625 -23.628906 20.78125 -23.328125 C 21.914062 -23.035156 23 -22.570312 24.03125 -21.9375 C 25.070312 -21.300781 25.914062 -20.40625 26.5625 -19.25 C 27.207031 -18.09375 27.53125 -16.75 27.53125 -15.21875 L 27.53125 0 L 19.546875 0 L 19.546875 -13.0625 C 19.546875 -14.257812 19.160156 -15.304688 18.390625 -16.203125 C 17.628906 -17.109375 16.632812 -17.5625 15.40625 -17.5625 C 14.207031 -17.5625 13.117188 -17.097656 12.140625 -16.171875 C 11.160156 -15.242188 10.671875 -14.207031 10.671875 -13.0625 L 10.671875 0 Z M 2.703125 0 "/></g></g></g><g fill="#ffffff" fill-opacity="1"><g transform="translate(121.434462, 49.705754)"><g><path d="M 1.671875 5.671875 L 8.203125 2.484375 C 9.398438 4.460938 11.484375 5.453125 14.453125 5.453125 C 15.835938 5.453125 17.125 5.007812 18.3125 4.125 C 19.5 3.238281 20.09375 1.878906 20.09375 0.046875 L 20.09375 -1.671875 C 18.675781 -0.109375 16.148438 0.671875 12.515625 0.671875 C 9.179688 0.671875 6.429688 -0.503906 4.265625 -2.859375 C 2.109375 -5.210938 1.03125 -8.101562 1.03125 -11.53125 C 1.03125 -14.957031 2.109375 -17.851562 4.265625 -20.21875 C 6.429688 -22.59375 9.179688 -23.78125 12.515625 -23.78125 C 15.492188 -23.78125 17.972656 -22.863281 19.953125 -21.03125 L 20.09375 -21.03125 L 20.09375 -23.109375 L 28.0625 -23.109375 L 28.0625 0.625 C 28.0625 4.382812 26.816406 7.285156 24.328125 9.328125 C 21.835938 11.367188 18.546875 12.390625 14.453125 12.390625 C 7.847656 12.390625 3.585938 10.148438 1.671875 5.671875 Z M 11.046875 -15.453125 C 10.015625 -14.429688 9.5 -13.125 9.5 -11.53125 C 9.5 -9.9375 9.992188 -8.632812 10.984375 -7.625 C 11.984375 -6.625 13.289062 -6.125 14.90625 -6.125 C 16.46875 -6.125 17.75 -6.632812 18.75 -7.65625 C 19.757812 -8.675781 20.265625 -9.96875 20.265625 -11.53125 C 20.265625 -13.125 19.742188 -14.429688 18.703125 -15.453125 C 17.671875 -16.472656 16.40625 -16.984375 14.90625 -16.984375 C 13.375 -16.984375 12.085938 -16.472656 11.046875 -15.453125 Z M 11.046875 -15.453125 "/></g></g></g><g fill="#ffffff" fill-opacity="1"><g transform="translate(147.961603, 49.705754)"><g><path d="M 7.84375 -9.640625 C 9.28125 -9.640625 10.5 -9.132812 11.5 -8.125 C 12.507812 -7.125 13.015625 -5.898438 13.015625 -4.453125 C 13.015625 -3.046875 12.507812 -1.835938 11.5 -0.828125 C 10.5 0.171875 9.28125 0.671875 7.84375 0.671875 C 6.425781 0.671875 5.210938 0.171875 4.203125 -0.828125 C 3.203125 -1.835938 2.703125 -3.046875 2.703125 -4.453125 C 2.703125 -5.898438 3.203125 -7.125 4.203125 -8.125 C 5.210938 -9.132812 6.425781 -9.640625 7.84375 -9.640625 Z M 7.84375 -9.640625 "/></g></g></g><g fill="#ffffff" fill-opacity="1"><g transform="translate(78.138092, 59.873515)"><g><path d="M 3.375 -6.28125 C 3.9375 -6.28125 4.414062 -6.140625 4.8125 -5.859375 C 5.21875 -5.578125 5.519531 -5.195312 5.71875 -4.71875 C 5.925781 -4.25 6.03125 -3.722656 6.03125 -3.140625 C 6.03125 -2.554688 5.925781 -2.023438 5.71875 -1.546875 C 5.519531 -1.066406 5.21875 -0.6875 4.8125 -0.40625 C 4.414062 -0.132812 3.9375 0 3.375 0 L 1.171875 0 C 1.054688 0 0.957031 -0.0390625 0.875 -0.125 C 0.789062 -0.207031 0.75 -0.3125 0.75 -0.4375 L 0.75 -5.84375 C 0.75 -5.96875 0.789062 -6.070312 0.875 -6.15625 C 0.957031 -6.238281 1.054688 -6.28125 1.171875 -6.28125 Z M 3.296875 -0.828125 C 3.898438 -0.828125 4.351562 -1.039062 4.65625 -1.46875 C 4.96875 -1.90625 5.125 -2.460938 5.125 -3.140625 C 5.125 -3.804688 4.96875 -4.359375 4.65625 -4.796875 C 4.351562 -5.234375 3.898438 -5.453125 3.296875 -5.453125 L 1.625 -5.453125 L 1.625 -0.828125 Z M 3.296875 -0.828125 "/></g></g></g><g fill="#ffffff" fill-opacity="1"><g transform="translate(90.410753, 59.873515)"><g><path d="M 5.5625 -0.5625 C 5.582031 -0.5 5.59375 -0.441406 5.59375 -0.390625 C 5.59375 -0.265625 5.550781 -0.160156 5.46875 -0.078125 C 5.394531 -0.00390625 5.300781 0.03125 5.1875 0.03125 C 5.101562 0.03125 5.023438 0.00390625 4.953125 -0.046875 C 4.890625 -0.0976562 4.835938 -0.171875 4.796875 -0.265625 L 4.25 -1.578125 L 1.46875 -1.578125 L 0.921875 -0.25 C 0.890625 -0.15625 0.835938 -0.0820312 0.765625 -0.03125 C 0.703125 0.0078125 0.628906 0.03125 0.546875 0.03125 C 0.421875 0.03125 0.320312 0 0.25 -0.0625 C 0.1875 -0.132812 0.15625 -0.226562 0.15625 -0.34375 C 0.15625 -0.363281 0.160156 -0.410156 0.171875 -0.484375 L 2.46875 -6.03125 C 2.507812 -6.125 2.566406 -6.195312 2.640625 -6.25 C 2.710938 -6.300781 2.796875 -6.320312 2.890625 -6.3125 C 2.984375 -6.3125 3.066406 -6.285156 3.140625 -6.234375 C 3.210938 -6.179688 3.265625 -6.113281 3.296875 -6.03125 Z M 1.8125 -2.390625 L 3.90625 -2.390625 L 2.859375 -4.90625 Z M 1.8125 -2.390625 "/></g></g></g><g fill="#ffffff" fill-opacity="1"><g transform="translate(102.01126, 59.873515)"><g><path d="M 6.453125 -3.140625 C 6.453125 -2.535156 6.320312 -1.988281 6.0625 -1.5 C 5.800781 -1.007812 5.4375 -0.617188 4.96875 -0.328125 C 4.507812 -0.046875 3.992188 0.09375 3.421875 0.09375 C 2.835938 0.09375 2.316406 -0.046875 1.859375 -0.328125 C 1.398438 -0.617188 1.039062 -1.007812 0.78125 -1.5 C 0.519531 -1.988281 0.390625 -2.535156 0.390625 -3.140625 C 0.390625 -3.742188 0.519531 -4.289062 0.78125 -4.78125 C 1.039062 -5.269531 1.398438 -5.65625 1.859375 -5.9375 C 2.316406 -6.226562 2.835938 -6.375 3.421875 -6.375 C 3.992188 -6.375 4.507812 -6.226562 4.96875 -5.9375 C 5.4375 -5.65625 5.800781 -5.269531 6.0625 -4.78125 C 6.320312 -4.289062 6.453125 -3.742188 6.453125 -3.140625 Z M 5.53125 -3.140625 C 5.53125 -3.585938 5.4375 -3.988281 5.25 -4.34375 C 5.070312 -4.707031 4.820312 -4.992188 4.5 -5.203125 C 4.1875 -5.410156 3.828125 -5.515625 3.421875 -5.515625 C 3.015625 -5.515625 2.648438 -5.410156 2.328125 -5.203125 C 2.003906 -5.003906 1.753906 -4.722656 1.578125 -4.359375 C 1.398438 -4.003906 1.3125 -3.597656 1.3125 -3.140625 C 1.3125 -2.691406 1.398438 -2.285156 1.578125 -1.921875 C 1.753906 -1.554688 2.003906 -1.269531 2.328125 -1.0625 C 2.648438 -0.863281 3.015625 -0.765625 3.421875 -0.765625 C 3.828125 -0.765625 4.1875 -0.863281 4.5 -1.0625 C 4.820312 -1.269531 5.070312 -1.554688 5.25 -1.921875 C 5.4375 -2.285156 5.53125 -2.691406 5.53125 -3.140625 Z M 5.53125 -3.140625 "/></g></g></g></svg>